<svg width="162" height="46" viewBox="0 0 162 46" fill="none" xmlns="http://www.w3.org/2000/svg">
<path d="M11.7333 7.75195C12.738 7.75195 13.6598 8.12659 14.3308 8.81878C15.0018 9.51171 15.4 10.501 15.4 11.6944C15.4 12.882 15.0069 14.0739 14.366 14.9761C13.728 15.8739 12.804 16.5324 11.7333 16.5324C10.6627 16.5324 9.73867 15.8739 9.10067 14.9761C8.45973 14.0739 8.06667 12.882 8.06667 11.6951C8.06667 10.501 8.46487 9.51171 9.1366 8.81878C9.80687 8.12659 10.7287 7.75195 11.7333 7.75195ZM3.66667 14.3373C4.67133 14.3373 5.59313 14.712 6.26413 15.4041C6.93513 16.0971 7.33333 17.0863 7.33333 18.2798C7.33333 19.4673 6.94027 20.6593 6.29933 21.5615C5.66133 22.4593 4.73733 23.1178 3.66667 23.1178C2.596 23.1178 1.672 22.4593 1.034 21.5615C0.393067 20.6593 0 19.4666 0 18.2805C0 17.0863 0.3982 16.0971 1.06993 15.4041C1.7402 14.712 2.662 14.3373 3.66667 14.3373ZM16.5 19.4593C11.2757 19.4593 6.9476 23.8971 5.58507 29.4617C4.9808 31.9305 5.9026 34.5785 8.17593 35.8334C9.98213 36.8315 12.6852 37.752 16.4993 37.752C20.3141 37.752 23.0171 36.8315 24.8241 35.8334C27.0967 34.5785 28.0185 31.9305 27.4142 29.4624C26.0524 23.8971 21.7235 19.4593 16.5 19.4593ZM29.3333 14.3373C28.3287 14.3373 27.4069 14.712 26.7366 15.4041C26.0649 16.0971 25.6667 17.0863 25.6667 18.2798C25.6667 19.4673 26.0597 20.6593 26.7007 21.5615C27.3387 22.4593 28.2627 23.1178 29.3333 23.1178C30.404 23.1178 31.328 22.4593 31.966 21.5615C32.6069 20.6593 33 19.4673 33 18.2805C33 17.0863 32.6018 16.0971 31.9308 15.4041C31.2598 14.712 30.338 14.3373 29.3333 14.3373ZM21.2667 7.75195C20.262 7.75195 19.3402 8.12659 18.6699 8.81878C17.9982 9.51171 17.6 10.501 17.6 11.6944C17.6 12.882 17.9931 14.0739 18.634 14.9761C19.272 15.8739 20.196 16.5324 21.2667 16.5324C22.3373 16.5324 23.2613 15.8739 23.8993 14.9761C24.5403 14.0739 24.9333 12.882 24.9333 11.6951C24.9333 10.501 24.5351 9.51171 23.8641 8.81878C23.1931 8.12659 22.2713 7.75195 21.2667 7.75195Z" fill="#001323"/>
<path d="M62.007 16.0347C62.007 17.0569 61.7723 17.9954 61.3031 18.85C60.8339 19.6879 60.1133 20.3666 59.1413 20.8861C58.1693 21.4057 56.9627 21.6654 55.5215 21.6654H52.857V28H48.5585V10.3536H55.5215C56.9292 10.3536 58.1191 10.5966 59.091 11.0826C60.063 11.5686 60.792 12.2389 61.278 13.0936C61.764 13.9483 62.007 14.9286 62.007 16.0347ZM55.1948 18.2467C56.0159 18.2467 56.6276 18.054 57.0298 17.6686C57.432 17.2831 57.6331 16.7385 57.6331 16.0347C57.6331 15.3308 57.432 14.7862 57.0298 14.4007C56.6276 14.0153 56.0159 13.8226 55.1948 13.8226H52.857V18.2467H55.1948ZM68.5432 13.7974V17.3669H74.2997V20.6851H68.5432V24.5562H75.0538V28H64.2448V10.3536H75.0538V13.7974H68.5432ZM90.5388 10.3536V13.7974H85.8632V28H81.5647V13.7974H76.8892V10.3536H90.5388ZM103.681 24.883H97.0951L96.0393 28H91.5397L97.9246 10.3536H102.902L109.287 28H104.737L103.681 24.883ZM102.575 21.5649L100.388 15.1046L98.2262 21.5649H102.575ZM117.841 10.3536C119.701 10.3536 121.327 10.7223 122.718 11.4597C124.109 12.197 125.181 13.236 125.935 14.5767C126.706 15.9006 127.092 17.434 127.092 19.1768C127.092 20.9029 126.706 22.4363 125.935 23.7769C125.181 25.1176 124.1 26.1566 122.692 26.894C121.302 27.6313 119.684 28 117.841 28H111.23V10.3536H117.841ZM117.564 24.2797C119.19 24.2797 120.455 23.8356 121.36 22.9474C122.265 22.0592 122.718 20.8024 122.718 19.1768C122.718 17.5513 122.265 16.286 121.36 15.3811C120.455 14.4761 119.19 14.0237 117.564 14.0237H115.528V24.2797H117.564Z" fill="#001323"/>
<path d="M52.9942 36.3839C52.9942 36.9863 52.7865 37.4882 52.3711 37.8898C51.9626 38.2844 51.336 38.4818 50.4914 38.4818H49.0997V41.5039H48.1547V34.2653H50.4914C51.3083 34.2653 51.928 34.4626 52.3503 34.8573C52.7796 35.2519 52.9942 35.7608 52.9942 36.3839ZM50.4914 37.7029C51.0175 37.7029 51.4053 37.5886 51.6545 37.3601C51.9038 37.1317 52.0284 36.8063 52.0284 36.3839C52.0284 35.4908 51.516 35.0442 50.4914 35.0442H49.0997V37.7029H50.4914ZM61.3451 35.0338V37.4536H63.983V38.2325H61.3451V40.725H64.2945V41.5039H60.4V34.2549H64.2945V35.0338H61.3451ZM76.4111 34.2653V35.0338H74.4379V41.5039H73.4928V35.0338H71.5092V34.2653H76.4111ZM93.7507 40.7354H96.2847V41.5039H92.8056V34.2653H93.7507V40.7354ZM106.801 41.5766C106.13 41.5766 105.517 41.4208 104.963 41.1093C104.409 40.7908 103.97 40.3511 103.644 39.7903C103.326 39.2226 103.166 38.5856 103.166 37.8794C103.166 37.1732 103.326 36.5397 103.644 35.9789C103.97 35.4112 104.409 34.9715 104.963 34.66C105.517 34.3415 106.13 34.1822 106.801 34.1822C107.48 34.1822 108.096 34.3415 108.65 34.66C109.204 34.9715 109.64 35.4077 109.958 35.9685C110.277 36.5293 110.436 37.1663 110.436 37.8794C110.436 38.5925 110.277 39.2295 109.958 39.7903C109.64 40.3511 109.204 40.7908 108.65 41.1093C108.096 41.4208 107.48 41.5766 106.801 41.5766ZM106.801 40.7562C107.307 40.7562 107.76 40.6385 108.162 40.4031C108.57 40.1677 108.889 39.8319 109.117 39.3957C109.353 38.9595 109.47 38.4541 109.47 37.8794C109.47 37.2978 109.353 36.7924 109.117 36.3632C108.889 35.927 108.574 35.5912 108.172 35.3558C107.771 35.1204 107.314 35.0027 106.801 35.0027C106.289 35.0027 105.832 35.1204 105.43 35.3558C105.029 35.5912 104.71 35.927 104.475 36.3632C104.247 36.7924 104.132 37.2978 104.132 37.8794C104.132 38.4541 104.247 38.9595 104.475 39.3957C104.71 39.8319 105.029 40.1677 105.43 40.4031C105.839 40.6385 106.296 40.7562 106.801 40.7562ZM123.897 34.2653L121.166 41.5039H120.075L117.344 34.2653H118.351L120.626 40.5069L122.9 34.2653H123.897ZM132.11 35.0338V37.4536H134.747V38.2325H132.11V40.725H135.059V41.5039H131.164V34.2549H135.059V35.0338H132.11ZM146.532 41.5039L144.808 38.5441H143.665V41.5039H142.72V34.2653H145.057C145.604 34.2653 146.064 34.3588 146.438 34.5457C146.819 34.7327 147.103 34.9854 147.29 35.3038C147.477 35.6223 147.57 35.9858 147.57 36.3943C147.57 36.8928 147.425 37.3325 147.134 37.7133C146.85 38.094 146.421 38.3468 145.846 38.4714L147.664 41.5039H146.532ZM143.665 37.7859H145.057C145.569 37.7859 145.954 37.6613 146.21 37.4121C146.466 37.1559 146.594 36.8166 146.594 36.3943C146.594 35.9651 146.466 35.6327 146.21 35.3973C145.96 35.1619 145.576 35.0442 145.057 35.0442H143.665V37.7859ZM157.565 41.5766C157.087 41.5766 156.658 41.4935 156.277 41.3274C155.903 41.1543 155.609 40.9189 155.394 40.6212C155.18 40.3165 155.069 39.9669 155.062 39.5722H156.07C156.104 39.9115 156.243 40.1988 156.485 40.4342C156.734 40.6627 157.094 40.7769 157.565 40.7769C158.015 40.7769 158.368 40.6662 158.624 40.4446C158.887 40.2161 159.019 39.9253 159.019 39.5722C159.019 39.2953 158.943 39.0703 158.79 38.8972C158.638 38.7241 158.448 38.5925 158.219 38.5025C157.991 38.4125 157.683 38.3156 157.295 38.2117C156.817 38.0871 156.433 37.9625 156.142 37.8379C155.858 37.7133 155.613 37.5194 155.405 37.2563C155.204 36.9863 155.104 36.6263 155.104 36.1762C155.104 35.7816 155.204 35.4319 155.405 35.1273C155.606 34.8227 155.886 34.5873 156.246 34.4211C156.613 34.2549 157.032 34.1718 157.503 34.1718C158.181 34.1718 158.735 34.3415 159.164 34.6807C159.601 35.02 159.846 35.47 159.902 36.0308H158.863C158.829 35.7539 158.683 35.5116 158.427 35.3038C158.171 35.0892 157.832 34.9819 157.409 34.9819C157.015 34.9819 156.693 35.0858 156.443 35.2935C156.194 35.4942 156.07 35.7781 156.07 36.1451C156.07 36.4082 156.142 36.6228 156.288 36.789C156.44 36.9551 156.623 37.0832 156.838 37.1732C157.06 37.2563 157.368 37.3532 157.762 37.464C158.24 37.5956 158.624 37.7271 158.915 37.8586C159.206 37.9833 159.455 38.1806 159.663 38.4506C159.871 38.7137 159.974 39.0737 159.974 39.5307C159.974 39.8838 159.881 40.2161 159.694 40.5277C159.507 40.8392 159.23 41.092 158.863 41.2858C158.496 41.4797 158.064 41.5766 157.565 41.5766Z" fill="#001323"/>
</svg>
