<svg width="33" height="30" viewBox="0 0 33 30" fill="none" xmlns="http://www.w3.org/2000/svg">
<path d="M11.7333 0C12.738 0 13.6598 0.374634 14.3308 1.06683C15.0018 1.75976 15.4 2.74902 15.4 3.94244C15.4 5.13 15.0069 6.32195 14.366 7.22415C13.728 8.12195 12.804 8.78049 11.7333 8.78049C10.6627 8.78049 9.73867 8.12195 9.10067 7.22415C8.45973 6.32195 8.06667 5.13 8.06667 3.94317C8.06667 2.74902 8.46487 1.75976 9.1366 1.06683C9.80687 0.374634 10.7287 0 11.7333 0ZM3.66667 6.58537C4.67133 6.58537 5.59313 6.96 6.26413 7.6522C6.93513 8.34512 7.33333 9.33439 7.33333 10.5278C7.33333 11.7154 6.94027 12.9073 6.29933 13.8095C5.66133 14.7073 4.73733 15.3659 3.66667 15.3659C2.596 15.3659 1.672 14.7073 1.034 13.8095C0.393067 12.9073 0 11.7146 0 10.5285C0 9.33439 0.3982 8.34512 1.06993 7.6522C1.7402 6.96 2.662 6.58537 3.66667 6.58537ZM16.5 11.7073C11.2757 11.7073 6.9476 16.1451 5.58507 21.7098C4.9808 24.1785 5.9026 26.8266 8.17593 28.0815C9.98213 29.0795 12.6852 30 16.4993 30C20.3141 30 23.0171 29.0795 24.8241 28.0815C27.0967 26.8266 28.0185 24.1785 27.4142 21.7105C26.0524 16.1451 21.7235 11.7073 16.5 11.7073ZM29.3333 6.58537C28.3287 6.58537 27.4069 6.96 26.7366 7.6522C26.0649 8.34512 25.6667 9.33439 25.6667 10.5278C25.6667 11.7154 26.0597 12.9073 26.7007 13.8095C27.3387 14.7073 28.2627 15.3659 29.3333 15.3659C30.404 15.3659 31.328 14.7073 31.966 13.8095C32.6069 12.9073 33 11.7154 33 10.5285C33 9.33439 32.6018 8.34512 31.9308 7.6522C31.2598 6.96 30.338 6.58537 29.3333 6.58537ZM21.2667 0C20.262 0 19.3402 0.374634 18.6699 1.06683C17.9982 1.75976 17.6 2.74902 17.6 3.94244C17.6 5.13 17.9931 6.32195 18.634 7.22415C19.272 8.12195 20.196 8.78049 21.2667 8.78049C22.3373 8.78049 23.2613 8.12195 23.8993 7.22415C24.5403 6.32195 24.9333 5.13 24.9333 3.94317C24.9333 2.74902 24.5351 1.75976 23.8641 1.06683C23.1931 0.374634 22.2713 0 21.2667 0Z" fill="#001323"/>
</svg>
